<svg width="48" height="48" viewBox="0 0 48 48" fill="none" xmlns="http://www.w3.org/2000/svg">
<circle cx="24" cy="24" r="24" fill="white"/>
<path d="M20.7254 31.7154C21.1204 31.5909 21.3398 31.1698 21.2154 30.7747C21.091 30.3796 20.6698 30.1602 20.2747 30.2846L20.7254 31.7154ZM15.6155 27.4746L14.8901 27.2841L14.5092 28.735L15.2346 28.9254L15.6155 27.4746ZM25.75 34.5V35.25H27.25V34.5H25.75ZM26 27.5L25.9199 26.7543C25.6323 26.7852 25.3881 26.9787 25.2923 27.2517C25.1966 27.5246 25.2663 27.8283 25.4715 28.0321L26 27.5ZM30.5 22.2775H31.25L31.25 22.2751L30.5 22.2775ZM29.3337 19.4687L28.6345 19.1972C28.5271 19.474 28.5929 19.7881 28.8026 19.9983L29.3337 19.4687ZM29.2637 16.6451L29.9485 16.3393C29.8581 16.1369 29.6828 15.9849 29.4697 15.924L29.2637 16.6451ZM26.2222 17.7537L26.033 18.4795C26.2363 18.5325 26.4526 18.4978 26.6291 18.3838L26.2222 17.7537ZM20.7779 17.7537L20.3711 18.3838C20.5476 18.4978 20.7638 18.5325 20.9671 18.4795L20.7779 17.7537ZM17.7364 16.6451L17.5302 15.924C17.3171 15.985 17.142 16.137 17.0516 16.3393L17.7364 16.6451ZM17.6664 19.4687L18.1975 19.9984C18.4071 19.7881 18.473 19.474 18.3655 19.1972L17.6664 19.4687ZM16.5 22.3002H17.25L17.25 22.2983L16.5 22.3002ZM21 27.5L21.5295 28.0312C21.733 27.8284 21.8028 27.527 21.709 27.2553C21.6153 26.9837 21.3745 26.7895 21.0892 26.7553L21 27.5ZM20.5 29.6H21.25C21.25 29.5817 21.2494 29.5633 21.248 29.5451L20.5 29.6ZM19.75 34.5V35.25H21.25V34.5H19.75ZM20.2747 30.2846C19.4372 30.5485 18.9129 30.5169 18.5709 30.404C18.2311 30.2919 17.9682 30.0659 17.7137 29.7341C17.5846 29.5659 17.4653 29.3806 17.3391 29.1763C17.2196 28.9827 17.0825 28.753 16.9441 28.5488C16.676 28.1534 16.273 27.6472 15.6155 27.4746L15.2346 28.9254C15.327 28.9497 15.4645 29.0396 15.7026 29.3906C15.8173 29.5597 15.9247 29.7408 16.063 29.9646C16.1945 30.1776 16.3463 30.4161 16.5235 30.6471C16.8815 31.1138 17.3718 31.5878 18.1008 31.8284C18.8276 32.0683 19.6878 32.0422 20.7254 31.7154L20.2747 30.2846ZM27.25 29.5125C27.25 28.7293 27.316 27.7501 26.5286 26.9679L25.4715 28.0321C25.7323 28.2912 25.75 28.5457 25.75 29.5125H27.25ZM26.0802 28.2457C27.3417 28.1101 28.6726 27.806 29.6763 26.8734C30.7033 25.9193 31.25 24.4425 31.25 22.2775H29.75C29.75 24.2022 29.2678 25.2055 28.6553 25.7745C28.0196 26.3651 27.1005 26.6274 25.9199 26.7543L26.0802 28.2457ZM31.25 22.2751C31.246 21.024 30.7481 19.8251 29.8647 18.9392L28.8026 19.9983C29.4068 20.6042 29.7473 21.4242 29.75 22.2799L31.25 22.2751ZM30.0328 19.7403C30.2442 19.1959 30.3456 18.6151 30.3311 18.0313L28.8316 18.0685C28.8411 18.4541 28.7742 18.8377 28.6345 19.1972L30.0328 19.7403ZM30.3311 18.0313C30.3166 17.4476 30.1866 16.8725 29.9485 16.3393L28.5788 16.951C28.7361 17.3031 28.822 17.683 28.8316 18.0685L30.3311 18.0313ZM29.2637 16.6451C29.4697 15.924 29.469 15.9238 29.4683 15.9236C29.468 15.9235 29.4673 15.9233 29.4669 15.9232C29.4659 15.9229 29.4649 15.9226 29.4639 15.9224C29.4619 15.9218 29.4599 15.9212 29.4578 15.9207C29.4536 15.9195 29.4491 15.9184 29.4444 15.9172C29.435 15.9148 29.4247 15.9124 29.4133 15.9099C29.3907 15.9049 29.3643 15.8999 29.334 15.8952C29.2734 15.8859 29.1978 15.8782 29.107 15.8758C28.9248 15.8709 28.6843 15.8873 28.3822 15.9518C27.7792 16.0807 26.9348 16.4006 25.8152 17.1237L26.6291 18.3838C27.6323 17.7358 28.3086 17.5014 28.6956 17.4187C28.8886 17.3775 29.0104 17.3738 29.0669 17.3753C29.0953 17.376 29.1081 17.3781 29.1061 17.3778C29.1051 17.3777 29.1004 17.3769 29.0923 17.3751C29.0882 17.3742 29.0833 17.3731 29.0775 17.3716C29.0746 17.3709 29.0715 17.3701 29.0682 17.3692C29.0665 17.3688 29.0648 17.3683 29.0631 17.3678C29.0622 17.3676 29.0613 17.3673 29.0604 17.3671C29.0599 17.3669 29.0592 17.3667 29.059 17.3667C29.0583 17.3665 29.0576 17.3663 29.2637 16.6451ZM26.4113 17.028C24.5024 16.5304 22.4977 16.5304 20.5887 17.028L20.9671 18.4795C22.628 18.0466 24.3721 18.0466 26.033 18.4795L26.4113 17.028ZM21.1847 17.1237C20.0648 16.4006 19.2204 16.0807 18.6175 15.9518C18.3155 15.8873 18.0751 15.8709 17.893 15.8758C17.8021 15.8782 17.7266 15.8859 17.6659 15.8952C17.6357 15.8999 17.6092 15.905 17.5866 15.9099C17.5753 15.9124 17.5649 15.9149 17.5555 15.9172C17.5508 15.9184 17.5464 15.9196 17.5421 15.9207C17.54 15.9213 17.538 15.9218 17.536 15.9224C17.535 15.9227 17.534 15.923 17.533 15.9232C17.5326 15.9234 17.5318 15.9236 17.5316 15.9236C17.5309 15.9238 17.5302 15.924 17.7364 16.6451C17.9426 17.3662 17.9419 17.3664 17.9412 17.3666C17.941 17.3667 17.9403 17.3669 17.9399 17.367C17.939 17.3673 17.9381 17.3675 17.9372 17.3678C17.9354 17.3682 17.9337 17.3687 17.932 17.3692C17.9287 17.3701 17.9256 17.3709 17.9227 17.3716C17.9169 17.3731 17.912 17.3742 17.9079 17.3751C17.8997 17.3769 17.8951 17.3776 17.8941 17.3778C17.8919 17.3781 17.9047 17.376 17.933 17.3753C17.9894 17.3738 18.1112 17.3775 18.3041 17.4187C18.691 17.5014 19.3674 17.7358 20.3711 18.3838L21.1847 17.1237ZM17.0516 16.3393C16.8135 16.8725 16.6834 17.4476 16.669 18.0313L18.1685 18.0685C18.1781 17.683 18.264 17.3031 18.4212 16.951L17.0516 16.3393ZM16.669 18.0313C16.6545 18.6151 16.7559 19.1959 16.9673 19.7403L18.3655 19.1972C18.2259 18.8377 18.1589 18.4541 18.1685 18.0685L16.669 18.0313ZM17.1354 18.9391C16.6946 19.381 16.3454 19.9056 16.1077 20.4827L17.4946 21.054C17.6572 20.6593 17.896 20.3006 18.1975 19.9984L17.1354 18.9391ZM16.1077 20.4827C15.87 21.0597 15.7484 21.678 15.75 22.3022L17.25 22.2983C17.2489 21.8715 17.3321 21.4486 17.4946 21.054L16.1077 20.4827ZM15.75 22.3002C15.75 24.4525 16.2979 25.9165 17.3258 26.8644C18.3275 27.7881 19.6557 28.0945 20.9109 28.2447L21.0892 26.7553C19.9023 26.6133 18.9804 26.3498 18.3427 25.7617C17.7311 25.1977 17.25 24.208 17.25 22.3002H15.75ZM20.4706 26.9688C20.0659 27.3721 19.8813 27.8822 19.7983 28.3421C19.7153 28.8026 19.7238 29.2702 19.7521 29.6549L21.248 29.5451C21.2238 29.215 21.2237 28.8902 21.2745 28.6082C21.3255 28.3258 21.4171 28.1433 21.5295 28.0312L20.4706 26.9688ZM19.75 29.6V34.5H21.25V29.6H19.75ZM27.25 34.5V29.5125H25.75V34.5H27.25Z" fill="#14506C"/>
</svg>
