<svg width="48" height="48" viewBox="0 0 48 48" fill="none" xmlns="http://www.w3.org/2000/svg">
<circle cx="24" cy="24" r="24" fill="white"/>
<path d="M33.3822 25.8858C28.8293 21.6628 22.1697 20.4745 16.8125 22.9283C16.2052 23.2071 15.8623 24.175 16.0456 25.093C16.2304 26.0092 16.8727 26.5266 17.4809 26.2493C22.1703 24.1006 28.2148 25.1663 32.1788 28.8437C32.7194 29.3452 33.4271 29.0892 33.7607 28.2721C34.0929 27.4571 33.9228 26.3882 33.3822 25.8858ZM35.3246 18.3781C29.851 13.4738 21.1897 13.013 15.9792 15.3998C15.2497 15.7343 14.8388 16.8971 15.0598 17.9976C15.2805 19.0976 16.0515 19.7188 16.7803 19.385C21.319 17.3056 29.1617 17.6978 33.9164 21.9596C34.5703 22.5472 35.4176 22.221 35.8068 21.2314C36.1951 20.2435 35.98 18.9655 35.3246 18.3781ZM31.6508 32.4261C27.763 28.84 22.9433 28.0061 17.3245 29.9447C17.2068 29.9851 17.0955 30.0601 16.997 30.1655C16.8985 30.271 16.8148 30.4046 16.7506 30.559C16.6863 30.7133 16.6429 30.8852 16.6228 31.0649C16.6026 31.2445 16.6061 31.4285 16.6331 31.6061C16.6874 31.9648 16.8339 32.2762 17.0403 32.472C17.2467 32.6677 17.4962 32.7316 17.7339 32.6497C22.8681 30.8792 27.2279 31.6007 30.6917 34.7965C30.7947 34.8915 30.9092 34.955 31.0285 34.9833C31.1478 35.0115 31.2697 35.004 31.3871 34.9611C31.5045 34.9182 31.6151 34.8408 31.7127 34.7333C31.8102 34.6258 31.8928 34.4904 31.9556 34.3347C32.0187 34.1792 32.0608 34.0064 32.0796 33.8263C32.0984 33.6462 32.0935 33.4623 32.0652 33.2851C32.0369 33.1078 31.9857 32.9407 31.9146 32.7934C31.8435 32.646 31.7539 32.5212 31.6508 32.4261Z" fill="white"/>
<path d="M31.6508 32.4261C27.763 28.84 22.9433 28.0061 17.3245 29.9447C17.2068 29.9851 17.0955 30.0601 16.997 30.1655C16.8985 30.271 16.8148 30.4046 16.7506 30.559C16.6863 30.7133 16.6429 30.8852 16.6228 31.0649C16.6026 31.2445 16.6061 31.4285 16.6331 31.6061C16.6874 31.9648 16.8339 32.2762 17.0403 32.472C17.2467 32.6677 17.4962 32.7316 17.7339 32.6497C22.8681 30.8792 27.2279 31.6007 30.6917 34.7965C30.7947 34.8915 30.9092 34.955 31.0285 34.9833C31.1478 35.0115 31.2697 35.004 31.3871 34.9611C31.5045 34.9182 31.6151 34.8408 31.7127 34.7333C31.8102 34.6258 31.8928 34.4904 31.9556 34.3347C32.0187 34.1792 32.0608 34.0064 32.0796 33.8263C32.0984 33.6462 32.0935 33.4623 32.0652 33.2851C32.0369 33.1078 31.9857 32.9407 31.9146 32.7934C31.8435 32.646 31.7539 32.5212 31.6508 32.4261M33.3822 25.8858C28.8293 21.6628 22.1697 20.4745 16.8125 22.9283C16.2052 23.2071 15.8623 24.175 16.0456 25.093C16.2304 26.0092 16.8727 26.5266 17.4809 26.2493C22.1703 24.1006 28.2148 25.1663 32.1788 28.8437C32.7194 29.3452 33.4271 29.0892 33.7607 28.2721C34.0929 27.4571 33.9228 26.3882 33.3822 25.8858V25.8858ZM35.3246 18.3781C29.851 13.4738 21.1897 13.013 15.9792 15.3998C15.2497 15.7343 14.8388 16.8971 15.0598 17.9976C15.2805 19.0976 16.0515 19.7188 16.7803 19.385C21.319 17.3056 29.1617 17.6978 33.9164 21.9596C34.5703 22.5472 35.4176 22.221 35.8068 21.2314C36.1951 20.2435 35.98 18.9655 35.3246 18.3781V18.3781Z" stroke="#144E6B" stroke-width="1.5"/>
</svg>
